<svg xmlns="http://www.w3.org/2000/svg" width="80" height="80" viewBox="0 0 80 80">
  <rect width="80" height="80" rx="8" fill="#2B579A"/>
  <g stroke="#ffffff" stroke-width="1.5" opacity="0.7">
    <line x1="16" y1="0" x2="16" y2="80"/>
    <line x1="32" y1="0" x2="32" y2="80"/>
    <line x1="48" y1="0" x2="48" y2="80"/>
    <line x1="64" y1="0" x2="64" y2="80"/>
    <line x1="0" y1="16" x2="80" y2="16"/>
    <line x1="0" y1="32" x2="80" y2="32"/>
    <line x1="0" y1="48" x2="80" y2="48"/>
    <line x1="0" y1="64" x2="80" y2="64"/>
  </g>
  <rect x="6" y="6" width="16" height="16" fill="#ffffff" opacity="0.3" rx="2"/>
  <rect x="22" y="6" width="16" height="16" fill="#ffffff" opacity="0.15" rx="2"/>
  <rect x="38" y="6" width="16" height="16" fill="#ffffff" opacity="0.25" rx="2"/>
  <rect x="6" y="22" width="16" height="16" fill="#ffffff" opacity="0.15" rx="2"/>
  <rect x="22" y="22" width="16" height="16" fill="#ffffff" opacity="0.35" rx="2"/>
  <rect x="38" y="22" width="16" height="16" fill="#ffffff" opacity="0.1" rx="2"/>
  <rect x="6" y="38" width="16" height="16" fill="#ffffff" opacity="0.25" rx="2"/>
  <rect x="22" y="38" width="16" height="16" fill="#ffffff" opacity="0.1" rx="2"/>
  <rect x="38" y="38" width="16" height="16" fill="#ffffff" opacity="0.3" rx="2"/>
  <rect x="54" y="6" width="16" height="16" fill="#ffffff" opacity="0.1" rx="2"/>
  <rect x="54" y="22" width="16" height="16" fill="#ffffff" opacity="0.25" rx="2"/>
  <rect x="54" y="38" width="16" height="16" fill="#ffffff" opacity="0.15" rx="2"/>
  <rect x="6" y="54" width="16" height="16" fill="#ffffff" opacity="0.1" rx="2"/>
  <rect x="22" y="54" width="16" height="16" fill="#ffffff" opacity="0.25" rx="2"/>
  <rect x="38" y="54" width="16" height="16" fill="#ffffff" opacity="0.15" rx="2"/>
  <rect x="54" y="54" width="16" height="16" fill="#ffffff" opacity="0.3" rx="2"/>
</svg>
