<svg xmlns="http://www.w3.org/2000/svg" width="80" height="80" viewBox="0 0 80 80">
  <!-- Background -->
  <rect width="80" height="80" rx="16" fill="#0F5CA8"/>

  <!-- Slide frame -->
  <rect x="12" y="16" width="44" height="34" rx="3" fill="white" opacity="0.95"/>

  <!-- Image content hint (landscape + sun) -->
  <circle cx="24" cy="26" r="4" fill="#F59E0B"/>
  <path d="M12 44 L24 34 L34 40 L42 32 L56 44 Z" fill="#86EFAC" opacity="0.6"/>

  <!-- Pixel mosaic overlay on slide -->
  <rect x="12" y="16" width="11" height="8.5" rx="0" fill="#0D4F8C" opacity="0.85"/>
  <rect x="23" y="16" width="11" height="8.5" fill="#1A6BBF" opacity="0.7"/>
  <rect x="34" y="16" width="11" height="8.5" fill="#0D4F8C" opacity="0.8"/>
  <rect x="45" y="16" width="11" height="8.5" fill="#1A6BBF" opacity="0.65"/>

  <rect x="12" y="24.5" width="11" height="8.5" fill="#1A6BBF" opacity="0.65"/>
  <rect x="23" y="24.5" width="11" height="8.5" fill="#0D4F8C" opacity="0.85"/>
  <rect x="34" y="24.5" width="11" height="8.5" fill="#1A6BBF" opacity="0.75"/>
  <rect x="45" y="24.5" width="11" height="8.5" fill="#0D4F8C" opacity="0.6"/>

  <rect x="12" y="33" width="11" height="8.5" fill="#0D4F8C" opacity="0.7"/>
  <rect x="23" y="33" width="11" height="8.5" fill="#1A6BBF" opacity="0.6"/>

  <!-- Shield badge -->
  <g transform="translate(52, 38)">
    <circle cx="12" cy="12" r="14" fill="#0F5CA8"/>
    <path d="M12 2 L4 6.5 L4 13.5 C4 18.5 12 23 12 23 C12 23 20 18.5 20 13.5 L20 6.5 Z"
          fill="white" opacity="0.95"/>
    <path d="M9 12.5 L11.5 15 L16 10" stroke="#0F5CA8" stroke-width="2.2" fill="none" stroke-linecap="round" stroke-linejoin="round"/>
  </g>
</svg>
