<svg xmlns="http://www.w3.org/2000/svg" width="32" height="32" viewBox="0 0 32 32">
  <!-- Background -->
  <rect width="32" height="32" rx="6" fill="#0F5CA8"/>

  <!-- Slide frame -->
  <rect x="4" y="5" width="19" height="15" rx="1.5" fill="white" opacity="0.95"/>

  <!-- Pixel mosaic overlay -->
  <rect x="4" y="5" width="6.3" height="5" fill="#0D4F8C" opacity="0.85"/>
  <rect x="10.3" y="5" width="6.3" height="5" fill="#1A6BBF" opacity="0.65"/>
  <rect x="16.6" y="5" width="6.4" height="5" fill="#0D4F8C" opacity="0.75"/>

  <rect x="4" y="10" width="6.3" height="5" fill="#1A6BBF" opacity="0.65"/>
  <rect x="10.3" y="10" width="6.3" height="5" fill="#0D4F8C" opacity="0.8"/>
  <rect x="16.6" y="10" width="6.4" height="5" fill="#1A6BBF" opacity="0.7"/>

  <rect x="4" y="15" width="6.3" height="5" fill="#0D4F8C" opacity="0.7"/>
  <rect x="10.3" y="15" width="6.3" height="5" fill="#1A6BBF" opacity="0.6"/>
  <rect x="16.6" y="15" width="6.4" height="5" fill="#0D4F8C" opacity="0.65"/>

  <!-- Shield badge -->
  <g transform="translate(19, 14)">
    <circle cx="6" cy="6" r="7.5" fill="#0F5CA8"/>
    <path d="M6 0.5 L2 3 L2 6.5 C2 9.5 6 12 6 12 C6 12 10 9.5 10 6.5 L10 3 Z"
          fill="white" opacity="0.95"/>
    <path d="M4.3 6.2 L5.5 7.5 L8 4.8" stroke="#0F5CA8" stroke-width="1.3" fill="none" stroke-linecap="round" stroke-linejoin="round"/>
  </g>
</svg>
